<svg width="30" height="33" viewBox="0 0 30 33" fill="none" xmlns="http://www.w3.org/2000/svg">
<path fill-rule="evenodd" clip-rule="evenodd" d="M19.503 3.3H26.4C28.215 3.3 29.7 4.785 29.7 6.6V29.7C29.7 31.515 28.215 33 26.4 33H3.3C3.069 33 2.8545 32.9835 2.64 32.9505C1.9965 32.8185 1.419 32.4885 0.9735 32.043C0.6765 31.7295 0.429 31.383 0.264 30.987C0.099 30.591 0 30.1455 0 29.7V6.6C0 6.138 0.099 5.709 0.264 5.3295C0.429 4.9335 0.6765 4.5705 0.9735 4.2735C1.419 3.828 1.9965 3.498 2.64 3.366C2.8545 3.3165 3.069 3.3 3.3 3.3H10.197C10.89 1.386 12.705 0 14.85 0C16.995 0 18.81 1.386 19.503 3.3ZM6.60001 9.90005H23.1V13.2001H6.60001V9.90005ZM23.1 16.5H6.60001V19.8H23.1V16.5ZM18.15 23.0999H6.60001V26.3999H18.15V23.0999ZM14.85 2.8874C15.5265 2.8874 16.0875 3.4484 16.0875 4.1249C16.0875 4.8014 15.5265 5.3624 14.85 5.3624C14.1735 5.3624 13.6125 4.8014 13.6125 4.1249C13.6125 3.4484 14.1735 2.8874 14.85 2.8874ZM3.29997 29.6999H26.4V6.59995H3.29997V29.6999Z" fill="#656565" fill-opacity="0.5"/>
</svg>
