<svg width="40" height="40" viewBox="0 0 40 40" fill="none" xmlns="http://www.w3.org/2000/svg">
<g id="directions_car_24px">
<path id="icon/maps/directions_car_24px" fill-rule="evenodd" clip-rule="evenodd" d="M31.5333 8.34996C31.2 7.36663 30.2667 6.66663 29.1667 6.66663H10.8333C9.73333 6.66663 8.81667 7.36663 8.46667 8.34996L5 18.3333V31.6666C5 32.5833 5.75 33.3333 6.66667 33.3333H8.33333C9.25 33.3333 10 32.5833 10 31.6666V30H30V31.6666C30 32.5833 30.75 33.3333 31.6667 33.3333H33.3333C34.25 33.3333 35 32.5833 35 31.6666V18.3333L31.5333 8.34996ZM11.4167 9.99996H28.5667L30.3667 15.1833H9.61668L11.4167 9.99996ZM8.33333 26.6666H31.6667V18.3333H8.33333V26.6666ZM12.5 20C11.1193 20 10 21.1192 10 22.5C10 23.8807 11.1193 25 12.5 25C13.8807 25 15 23.8807 15 22.5C15 21.1192 13.8807 20 12.5 20ZM25 22.5C25 21.1192 26.1193 20 27.5 20C28.8807 20 30 21.1192 30 22.5C30 23.8807 28.8807 25 27.5 25C26.1193 25 25 23.8807 25 22.5Z" fill="#AF88BE"/>
</g>
</svg>
