<svg width="34" height="31" viewBox="0 0 34 31" fill="none" xmlns="http://www.w3.org/2000/svg">
<path fill-rule="evenodd" clip-rule="evenodd" d="M29.85 2.39375C29.475 1.2875 28.425 0.5 27.1875 0.5H6.5625C5.325 0.5 4.29375 1.2875 3.9 2.39375L0 13.625V28.625C0 29.6562 0.84375 30.5 1.875 30.5H3.75C4.78125 30.5 5.625 29.6562 5.625 28.625V26.75H28.125V28.625C28.125 29.6562 28.9688 30.5 30 30.5H31.875C32.9062 30.5 33.75 29.6562 33.75 28.625V13.625L29.85 2.39375ZM7.21877 4.25H26.5125L28.5375 10.0812H5.19377L7.21877 4.25ZM3.75 23H30V13.625H3.75V23ZM8.4375 15.5C6.8842 15.5 5.625 16.7592 5.625 18.3125C5.625 19.8658 6.8842 21.125 8.4375 21.125C9.9908 21.125 11.25 19.8658 11.25 18.3125C11.25 16.7592 9.9908 15.5 8.4375 15.5ZM22.5 18.3125C22.5 16.7592 23.7592 15.5 25.3125 15.5C26.8658 15.5 28.125 16.7592 28.125 18.3125C28.125 19.8658 26.8658 21.125 25.3125 21.125C23.7592 21.125 22.5 19.8658 22.5 18.3125Z" fill="#656565" fill-opacity="0.5"/>
</svg>
