<svg width="35" height="34" viewBox="0 0 35 34" fill="none" xmlns="http://www.w3.org/2000/svg">
<path fill-rule="evenodd" clip-rule="evenodd" d="M31.5 7.375H27.685C27.8775 6.8325 28 6.2375 28 5.625C28 2.72 25.655 0.375 22.75 0.375C20.9125 0.375 19.32 1.32 18.375 2.7375L17.5 3.91L16.625 2.72C15.68 1.32 14.0875 0.375 12.25 0.375C9.345 0.375 7 2.72 7 5.625C7 6.2375 7.1225 6.8325 7.315 7.375H3.5C1.5575 7.375 0.0175 8.9325 0.0175 10.875L0 30.125C0 32.0675 1.5575 33.625 3.5 33.625H31.5C33.4425 33.625 35 32.0675 35 30.125V10.875C35 8.9325 33.4425 7.375 31.5 7.375ZM22.75 3.87504C23.7125 3.87504 24.5 4.66254 24.5 5.62504C24.5 6.58754 23.7125 7.37504 22.75 7.37504C21.7875 7.37504 21 6.58754 21 5.62504C21 4.66254 21.7875 3.87504 22.75 3.87504ZM14 5.62504C14 4.66254 13.2125 3.87504 12.25 3.87504C11.2875 3.87504 10.5 4.66254 10.5 5.62504C10.5 6.58754 11.2875 7.37504 12.25 7.37504C13.2125 7.37504 14 6.58754 14 5.62504ZM31.5 26.625V30.125H3.49998V26.625H31.5ZM3.49998 10.875V21.375H31.5V10.875H22.61L26.25 15.8275L23.415 17.875L17.5 9.82495L11.585 17.875L8.74998 15.8275L12.39 10.875H3.49998Z" fill="#656565" fill-opacity="0.5"/>
</svg>
