<svg width="40" height="40" viewBox="0 0 40 40" fill="none" xmlns="http://www.w3.org/2000/svg">
<g id="card_giftcard_24px">
<path id="icon/action/card_giftcard_24px" fill-rule="evenodd" clip-rule="evenodd" d="M33.3333 10.8333H29.7C29.8833 10.3166 30 9.74996 30 9.16663C30 6.39996 27.7666 4.16663 25 4.16663C23.25 4.16663 21.7333 5.06663 20.8333 6.41663L20 7.53329L19.1666 6.39996C18.2666 5.06663 16.75 4.16663 15 4.16663C12.2333 4.16663 9.99998 6.39996 9.99998 9.16663C9.99998 9.74996 10.1166 10.3166 10.3 10.8333H6.66665C4.81665 10.8333 3.34998 12.3166 3.34998 14.1666L3.33331 32.5C3.33331 34.35 4.81665 35.8333 6.66665 35.8333H33.3333C35.1833 35.8333 36.6666 34.35 36.6666 32.5V14.1666C36.6666 12.3166 35.1833 10.8333 33.3333 10.8333ZM25 7.49999C25.9166 7.49999 26.6666 8.24999 26.6666 9.16666C26.6666 10.0833 25.9166 10.8333 25 10.8333C24.0833 10.8333 23.3333 10.0833 23.3333 9.16666C23.3333 8.24999 24.0833 7.49999 25 7.49999ZM16.6666 9.16666C16.6666 8.24999 15.9166 7.49999 15 7.49999C14.0833 7.49999 13.3333 8.24999 13.3333 9.16666C13.3333 10.0833 14.0833 10.8333 15 10.8333C15.9166 10.8333 16.6666 10.0833 16.6666 9.16666ZM33.3333 29.1667V32.5001H6.66663V29.1667H33.3333ZM6.66663 14.1667V24.1667H33.3333V14.1667H24.8666L28.3333 18.8834L25.6333 20.8333L20 13.1667L14.3666 20.8333L11.6666 18.8834L15.1333 14.1667H6.66663Z" fill="#AF88BE"/>
</g>
</svg>
